<svg viewBox="0 0 151.08 162.01" xmlns="http://www.w3.org/2000/svg" xmlns:xlink="http://www.w3.org/1999/xlink" id="Layer_1" overflow="hidden"><defs></defs><path d="M21.58 130.84 21.58 130.84C21.58 130.84 75.55 162.01 75.55 162.01L128.81 131.26 128.57 130.84 151.09 130.84 140.52 112.54 140.52 49.47 85.9 17.94 75.54 0 65.18 17.94 10.57 49.47 10.57 112.54 0 130.84 21.58 130.84ZM120.86 113.39 76.84 113.39 76.84 93.49C78.41 92.9 79.53 91.4 79.53 89.62 79.53 87.33 77.68 85.48 75.39 85.48 73.1 85.48 71.25 87.33 71.25 89.62 71.25 91.5 72.51 93.07 74.23 93.58L74.23 113.39 30.22 113.39 75.54 34.89 120.86 113.39ZM25.68 116.01 74.23 116.01 74.23 128.22 4.53 128.22 39.49 67.67 50.07 73.77 25.68 116.01ZM74.23 130.84 74.23 158.23 26.79 130.84 74.23 130.84ZM76.85 158.23 76.85 130.84 124.29 130.84 76.85 158.23ZM76.85 128.22 76.85 116.01 125.4 116.01 101.01 73.77 111.59 67.67 146.55 128.22 76.85 128.22ZM113.85 66.36 137.89 52.49 137.89 108 113.85 66.36ZM136.59 50.22 112.55 64.09 88.52 22.46 136.59 50.22ZM110.28 65.4 99.7 71.5 75.54 29.65 51.38 71.5 40.8 65.4 67.1 19.85 67.81 19.44 67.57 19.03 75.54 5.23 110.28 65.4ZM38.53 64.09 14.49 50.22 62.56 22.46 38.53 64.09ZM13.18 52.49 37.22 66.36 13.18 108 13.18 52.49Z" stroke-width="0" fill="#ED7D31"/></svg>