<?xml version="1.0" encoding="UTF-8"?>
<svg id="Layer_2" xmlns="http://www.w3.org/2000/svg" viewBox="0 0 152.33 183.03">
  <defs>
    <style>
      .cls-1 {
        fill: #ed7d31;
      }
    </style>
  </defs>
  <g id="Layer_1-2" data-name="Layer_1">
    <path class="cls-1" d="M37.34,181.8l-.71,1.23h79.06l-.71-1.23,35.75-49.87h1.59L76.16,0,0,131.92h1.59l35.75,49.87ZM4.81,131.92h61.33l-27.36,47.39L4.81,131.92ZM41.16,180.41l27.99-48.49h14.01l28,48.49H41.16ZM49.76,77.67c0-14.13,11.49-25.62,25.62-25.62s25.62,11.49,25.62,25.62c0,1.15-.08,2.29-.23,3.4-2.58-1.95-5.48-3.83-8.62-5.43-1.01-8.36-8.13-14.87-16.77-14.87s-15.76,6.51-16.77,14.87c-3.15,1.59-6.05,3.48-8.62,5.43-.15-1.11-.23-2.25-.23-3.4ZM89.67,77.67c0,7.88-6.41,14.28-14.28,14.28s-14.28-6.41-14.28-14.28c0-.1.01-.19.01-.29,4.39-2.06,9.22-3.45,14.27-3.45s9.88,1.39,14.27,3.46c0,.1.01.19.01.29ZM75.38,71.31c-4.91,0-9.58,1.18-13.86,2.99,1.52-6.25,7.15-10.91,13.86-10.91s12.34,4.66,13.86,10.91c-4.28-1.81-8.95-2.99-13.86-2.99ZM58.54,78.68c.53,8.84,7.87,15.88,16.85,15.88s16.32-7.04,16.85-15.88c2.92,1.6,5.6,3.45,7.98,5.32-2.83,11.07-12.89,19.28-24.83,19.28s-22-8.21-24.83-19.28c2.38-1.87,5.06-3.73,7.98-5.32ZM75.38,105.91c12.74,0,23.52-8.48,27.03-20.08,4.15,3.55,7.11,6.9,8.35,8.38-3.22,3.85-17.99,20.28-35.38,20.28s-32.16-16.43-35.38-20.28c1.24-1.48,4.2-4.83,8.35-8.38,3.51,11.61,14.3,20.09,27.03,20.09ZM76.16,119.79l5.49,9.52h-10.99l5.49-9.52ZM113.55,179.31l-27.36-47.39h61.33l-33.97,47.39ZM76.16,5.23l71.63,124.07h-63.12l-7.1-12.29c19.83-1.4,35.24-21.14,35.91-22.01l.61-.8-.61-.8c-.33-.43-4.19-5.37-10.37-10.48.32-1.7.5-3.46.5-5.26,0-15.57-12.67-28.24-28.24-28.24s-28.24,12.67-28.24,28.24c0,1.8.18,3.55.5,5.26-6.18,5.11-10.04,10.06-10.37,10.48l-.61.8.61.8c.69.89,16.88,21.63,37.43,22.08l-7.06,12.23H4.53L76.16,5.23Z"/>
  </g>
</svg>