<?xml version="1.0" encoding="UTF-8"?>
<svg id="Layer_2" xmlns="http://www.w3.org/2000/svg" viewBox="0 0 151.62 188.78">
  <defs>
    <style>
      .cls-1 {
        fill: #ed7d31;
      }
    </style>
  </defs>
  <g id="Layer_1-2" data-name="Layer_1">
    <path class="cls-1" d="M86.21,33.09c4.73-3.28,7.84-8.74,7.84-14.92,0-10.02-8.15-18.16-18.16-18.16s-18.16,8.15-18.16,18.16c0,6.13,3.06,11.55,7.73,14.84L0,146.37h24.49L1.24,186.64l2.48,1.43,24.07-41.7h46.59v42.41h77.24l-24.49-42.41h24.49L86.21,33.09ZM60.58,18.16c0-8.44,6.87-15.3,15.31-15.3s15.3,6.87,15.3,15.3c0,5.12-2.54,9.65-6.41,12.43l-8.97-15.53-8.92,15.45c-3.81-2.79-6.31-7.28-6.31-12.35ZM82.31,32.04c-1.96.91-4.13,1.43-6.42,1.43s-4.56-.54-6.54-1.49l6.47-11.2,6.5,11.26ZM29.44,143.51l46.37-80.32,46.37,80.32h-44.94v-17.44h-2.86v17.44H29.44ZM146.67,185.92h-69.43v-39.55h46.59l22.84,39.55ZM75.81,57.48l-49.67,86.03H4.95l62.96-109.05c2.41,1.19,5.11,1.87,7.98,1.87s5.47-.66,7.85-1.81l62.93,108.99h-21.19l-49.67-86.03Z"/>
  </g>
</svg>