<svg viewBox="0 0 132.93 114.54" xmlns="http://www.w3.org/2000/svg" xmlns:xlink="http://www.w3.org/1999/xlink" id="Layer_1" overflow="hidden"><defs></defs><path d="M0.67 38.22 0 39.09 0.67 39.96C1.84 41.49 29.28 76.63 64.21 78.1L55.13 87.18C48.88 93.43 48.88 103.6 55.13 109.85 58.26 112.98 62.36 114.54 66.47 114.54 70.58 114.54 74.68 112.98 77.81 109.85 84.06 103.6 84.06 93.43 77.81 87.18L68.73 78.1C103.66 76.62 131.1 41.48 132.27 39.96L132.94 39.09 132.27 38.22C131.07 36.66 102.48 0 66.47 0 30.46 0 1.87 36.65 0.67 38.22ZM75.78 107.84C70.64 112.98 62.28 112.98 57.15 107.84 52.01 102.7 52.01 94.34 57.15 89.21L66.47 79.89 75.79 89.21C80.93 94.35 80.93 102.71 75.79 107.84ZM110.77 21.02C105.85 41.2 87.33 55.79 66.52 55.79 45.71 55.79 27.15 41.18 22.25 20.94 26.84 17.29 32.1 13.68 37.85 10.65 38.07 26.25 50.82 38.87 66.46 38.87 82.1 38.87 94.85 26.25 95.08 10.66 100.87 13.71 106.15 17.35 110.77 21.02ZM92.19 9.2C92.2 9.55 92.23 9.9 92.23 10.24 92.23 24.45 80.67 36.01 66.46 36.01 52.25 36.01 40.69 24.45 40.69 10.24 40.69 9.89 40.71 9.54 40.72 9.2 48.61 5.43 57.32 2.86 66.46 2.86 75.6 2.86 84.3 5.43 92.19 9.2ZM19.8 22.93C25.47 43.76 44.75 58.64 66.51 58.64 88.27 58.64 107.47 44.08 113.2 23 121.58 30.02 127.36 36.73 129.29 39.08 124.68 44.68 98.04 75.31 66.46 75.31 34.88 75.31 8.24 44.68 3.64 39.09 5.57 36.74 11.39 29.99 19.81 22.94Z" stroke-width="0" fill="#ED7D31"/></svg>