<?xml version="1.0" encoding="UTF-8"?>
<svg id="Layer_2" xmlns="http://www.w3.org/2000/svg" viewBox="0 0 177.12 174.46">
  <defs>
    <style>
      .cls-1 {
        fill: #ed7d31;
      }
    </style>
  </defs>
  <g id="Layer_1-2" data-name="Layer_1">
    <path class="cls-1" d="M128.77,20.29C119.64,7.99,105.01,0,88.56,0c-27.6,0-50.05,22.45-50.05,50.05,0,13.99,5.78,26.66,15.07,35.75H0l46.71,66.39.16-.11c8.98,13.48,24.31,22.38,41.68,22.38,27.6,0,50.05-22.45,50.05-50.05,0-13.99-5.78-26.66-15.07-35.75h53.58l-48.31-68.41-.05.03ZM135.75,50.05c0,14.04-6.17,26.66-15.93,35.31-8.22-6.6-18.56-10.65-29.83-10.97V2.9c25.36.76,45.76,21.61,45.76,47.15ZM89.99,77.26c9.52.29,18.35,3.4,25.65,8.54h-25.65v-8.54ZM87.13,85.8h-25.65c7.31-5.14,16.13-8.26,25.65-8.54v8.54ZM87.13,88.66v8.54c-9.52-.29-18.35-3.4-25.65-8.54h25.65ZM89.99,88.66h25.65c-7.31,5.14-16.13,8.26-25.65,8.54v-8.54ZM41.37,50.05c0-25.54,20.4-46.39,45.76-47.15v71.5c-11.26.32-21.6,4.37-29.83,10.97-9.76-8.65-15.93-21.27-15.93-35.31ZM5.51,88.66h48.07c-9.29,9.09-15.07,21.76-15.07,35.75,0,4.86.71,9.56,2.01,14L5.51,88.66ZM41.37,124.41c0-14.04,6.17-26.66,15.93-35.31,8.22,6.6,18.56,10.65,29.83,10.97v71.5c-25.36-.76-45.76-21.61-45.76-47.15ZM135.75,124.41c0,25.54-20.4,46.39-45.76,47.15v-71.5c11.26-.32,21.6-4.37,29.83-10.97,9.76,8.65,15.93,21.27,15.93,35.31ZM123.54,85.8c9.29-9.09,15.07-21.76,15.07-35.75,0-4.74-.68-9.33-1.92-13.68l34.91,49.43h-48.06Z"/>
  </g>
</svg>