<svg viewBox="0 0 213.47 161.02" xmlns="http://www.w3.org/2000/svg" xmlns:xlink="http://www.w3.org/1999/xlink" id="Layer_1" overflow="hidden"><defs></defs><path d="M213.04 87.25 195.3 78.56 187.38 74.68 169.64 65.99 161.72 62.11 143.98 53.42 136.06 49.54 118.32 40.85 110.4 36.97 108.17 35.88 108.17 0 105.31 0 105.31 35.87 101.92 37.53 99.21 38.86 93.14 41.84 90.43 43.17 84.36 46.15 81.65 47.48 75.58 50.46 72.87 51.79 66.8 54.77 64.09 56.1 58.02 59.07 55.31 60.4 49.24 63.37 46.53 64.7 40.46 67.68 37.75 69.01 31.68 71.99 28.97 73.32 22.9 76.3 20.19 77.63 14.12 80.6 11.41 81.93 5.34 84.91 2.63 86.24 0.07 87.5 0.07 90.07 12.59 96.2 20.51 100.08 38.25 108.77 46.17 112.65 63.91 121.34 71.83 125.22 89.57 133.91 97.49 137.79 106 141.96 106 161.06 108.86 161.06 108.86 141.34 109.69 140.94 112.4 139.61 118.47 136.63 121.18 135.3 127.25 132.32 129.96 130.99 136.03 128.02 138.74 126.69 144.81 123.71 147.52 122.38 153.59 119.4 156.3 118.07 162.37 115.09 165.08 113.76 171.15 110.78 173.86 109.45 179.93 106.48 182.64 105.15 188.71 102.17 191.42 100.84 197.49 97.87 200.2 96.54 206.27 93.56 208.98 92.23 213.48 90.03 213.48 87.46 213.05 87.25ZM116.64 43.2 158.24 84.8 140.5 76.11 108.16 43.77 108.16 39.04 116.63 43.19ZM106.74 95.41C103.06 95.41 100.07 92.42 100.07 88.74 100.07 85.06 103.06 82.07 106.74 82.07 110.42 82.07 113.41 85.06 113.41 88.74 113.41 92.42 110.42 95.41 106.74 95.41ZM105.31 79.33C100.73 80.02 97.21 83.97 97.21 88.74 97.21 93.51 100.73 97.46 105.31 98.15L105.31 114.03 94.67 108.82 86.75 104.94 69.01 96.25 61.09 92.37 53.7 88.75 56.23 87.51 58.94 86.18 65.01 83.2 67.72 81.87 73.79 78.89 76.5 77.56 82.57 74.59 85.28 73.26 91.35 70.28 94.06 68.95 100.13 65.97 102.84 64.64 105.29 63.44 105.29 79.32ZM108.17 98.15C112.75 97.46 116.27 93.51 116.27 88.74 116.27 83.97 112.75 80.02 108.17 79.33L108.17 63.45 113.16 65.89 121.08 69.77 138.82 78.46 146.74 82.34 159.78 88.73 155.31 90.92 152.6 92.25 146.53 95.23 143.82 96.56 137.75 99.54 135.04 100.87 128.97 103.85 126.26 105.18 120.19 108.16 117.48 109.49 111.41 112.46 108.7 113.79 108.19 114.04 108.19 98.16ZM106.74 114.73 106.74 114.73C106.74 114.73 106.74 114.73 106.74 114.73L106.74 114.73ZM108.17 56.87 108.17 47.82 132.58 72.23 114.84 63.54 108.17 56.87ZM105.31 39.05 105.31 40.92 104.06 39.67 105.31 39.06ZM101.34 40.99 105.31 44.96 105.31 54.01 95.27 43.97 101.34 40.99ZM92.56 45.3 105.31 58.05 105.31 60.27 100.73 62.51 86.49 48.27 92.56 45.29ZM83.77 49.6 98.01 63.84 91.94 66.82 77.7 52.58 83.77 49.6ZM74.98 53.91 89.22 68.15 83.15 71.13 68.91 56.89 74.98 53.91ZM66.2 58.21 80.44 72.45 74.37 75.42 60.13 61.18 66.2 58.21ZM57.41 62.51 71.65 76.75 65.58 79.73 51.34 65.49 57.41 62.51ZM48.63 66.82 62.87 81.06 56.8 84.04 42.56 69.8 48.63 66.82ZM3.88 88.74 4.7 88.34 6.28 89.92 3.88 88.74ZM14.2 93.8 7.41 87.01 13.48 84.03 31.93 102.48 14.19 93.79ZM39.86 106.37 16.19 82.7 22.26 79.73 57.59 115.06 39.85 106.37ZM65.52 118.94 24.98 78.4 31.05 75.42 83.26 127.63 65.52 118.94ZM91.18 131.51 33.76 74.09 39.83 71.11 54.07 85.35 49.8 87.44 49.8 90.01 67.31 98.59 107.47 138.75 106.72 139.12 91.17 131.5ZM110.2 137.44 75.25 102.49 92.99 111.18 116.28 134.47 110.21 137.45ZM118.98 133.13 100.9 115.05 106.1 117.6 107.36 117.6 110.81 115.91 125.05 130.15 118.98 133.13ZM127.77 128.83 113.53 114.59 119.6 111.62 133.84 125.86 127.77 128.83ZM136.55 124.52 122.31 110.28 128.38 107.3 142.62 121.54 136.55 124.52ZM145.34 120.22 131.1 105.98 137.17 103 151.41 117.24 145.34 120.22ZM154.13 115.92 139.89 101.68 145.96 98.7 160.2 112.94 154.13 115.92ZM162.91 111.61 148.67 97.37 154.74 94.39 168.98 108.63 162.91 111.61ZM171.7 107.31 157.46 93.07 163.53 90.1 177.77 104.34 171.7 107.31ZM180.48 103 124.56 47.08 142.3 55.77 186.56 100.03 180.49 103.01ZM189.27 98.7 150.22 59.65 167.96 68.34 195.34 95.72 189.27 98.69ZM198.05 94.39 175.88 72.22 193.62 80.91 204.13 91.42 198.06 94.4ZM206.84 90.09 201.54 84.8 209.59 88.74 206.83 90.09Z" stroke-width="0" fill="#ED7D31"/></svg>