<svg viewBox="0 0 124.33 147.94" xmlns="http://www.w3.org/2000/svg" xmlns:xlink="http://www.w3.org/1999/xlink" id="Layer_1" overflow="hidden"><defs></defs><path d="M0 87.43 23.67 99.11C10.29 110.21 1.75 126.95 1.75 145.64L4.6 145.64C4.6 127.37 13.16 111.05 26.48 100.5L122.58 147.93 122.58 145.63C122.58 116.61 102 92.3 74.68 86.53 85.6 84.93 96 81.23 105.42 75.65 110.99 79.12 116.19 83.27 120.91 88.09L122.95 86.09C118.4 81.45 113.41 77.41 108.1 73.98 113.41 70.56 118.4 66.53 122.95 61.9L124.33 60.49 100.66 48.81C114.04 37.72 122.58 20.98 122.58 2.28L119.73 2.28C119.73 20.55 111.17 36.87 97.85 47.42L1.75 0 1.75 2.3C1.75 31.32 22.33 55.63 49.65 61.4 38.73 63 28.33 66.7 18.91 72.28 13.34 68.81 8.14 64.66 3.42 59.84L1.38 61.84C5.93 66.48 10.92 70.52 16.23 73.95 10.92 77.37 5.93 81.4 1.38 86.03L8.88178e-16 87.44ZM119.68 143.32 29.05 98.59C38.42 91.97 49.85 88.08 62.17 88.08 93.13 88.08 118.46 112.65 119.69 143.32ZM98.18 50.78 119.51 61.31C115.17 65.53 110.43 69.2 105.41 72.32 95.99 66.72 85.59 63.01 74.66 61.41 83.32 59.58 91.31 55.89 98.17 50.78ZM4.65 4.61 95.28 49.35C85.91 55.97 74.48 59.86 62.16 59.86 31.2 59.86 5.87 35.28 4.65 4.61ZM62.13 63.35C76.56 63.35 90.39 67.06 102.6 74 90.41 80.91 76.6 84.6 62.21 84.6 47.82 84.6 33.95 80.89 21.74 73.95 33.93 67.04 47.74 63.35 62.13 63.35ZM18.92 75.62C28.34 81.22 38.74 84.93 49.67 86.53 41.01 88.36 33.02 92.05 26.16 97.16L4.83 86.63C9.17 82.41 13.91 78.74 18.93 75.62Z" stroke-width="0" fill="#ED7D31"/></svg>