<svg viewBox="0 0 189.2 189.2" xmlns="http://www.w3.org/2000/svg" xmlns:xlink="http://www.w3.org/1999/xlink" id="Layer_1" overflow="hidden"><defs></defs><path d="M27.71 161.5 66.9 161.5 94.61 189.21 122.32 161.5 161.51 161.5 161.51 122.31 189.22 94.6 161.51 66.89 161.51 27.71 122.32 27.71 94.6 0 66.89 27.71 27.71 27.71 27.71 66.9 0 94.6 27.71 122.31 27.71 161.5ZM30.57 158.64 30.57 125.17 64.04 158.64 30.57 158.64ZM33.29 94.6 51.25 76.64 51.25 51.24 76.65 51.24 94.61 33.28 112.57 51.24 137.97 51.24 137.97 76.64 155.93 94.6 137.97 112.56 137.97 137.96 112.57 137.96 94.61 155.92 76.65 137.96 51.25 137.96 51.25 112.56 33.29 94.6ZM75.46 140.82 93.28 158.64 68.08 158.64 50.26 140.82 75.46 140.82ZM113.74 140.82 138.94 140.82 121.12 158.64 95.92 158.64 113.74 140.82ZM140.82 113.74 158.64 95.92 158.64 121.12 140.82 138.94 140.82 113.74ZM158.64 93.28 140.82 75.46 140.82 50.26 158.64 68.08 158.64 93.28ZM113.74 48.39 95.92 30.57 121.12 30.57 138.94 48.39 113.74 48.39ZM75.46 48.39 50.26 48.39 68.08 30.57 93.28 30.57 75.46 48.39ZM48.39 75.46 30.57 93.28 30.57 68.08 48.39 50.26 48.39 75.46ZM30.57 95.93 48.39 113.75 48.39 138.95 30.57 121.13 30.57 95.93ZM94.6 185.16 70.94 161.5 118.27 161.5 94.61 185.16ZM158.64 158.64 125.17 158.64 158.64 125.17 158.64 158.64ZM185.16 94.6 161.5 118.26 161.5 70.93 185.16 94.59ZM158.64 30.57 158.64 64.04 125.17 30.57 158.64 30.57ZM94.6 4.04 118.26 27.7 70.93 27.7 94.59 4.04ZM30.57 30.57 64.04 30.57 30.57 64.04 30.57 30.57ZM4.04 94.6 27.7 70.94 27.7 118.27 4.04 94.61Z" stroke-width="0" fill="#ED7D31"/><path d="M62.69 126.52 81.39 126.52 94.61 139.74 107.83 126.52 126.53 126.52 126.53 107.82 139.75 94.6 126.53 81.38 126.53 62.68 107.83 62.68 94.61 49.46 81.39 62.68 62.69 62.68 62.69 81.38 49.47 94.6 62.69 107.82 62.69 126.52ZM65.55 123.66 65.55 110.68 78.53 123.66 65.55 123.66ZM65.55 106.64 65.55 82.57 82.57 65.55 106.64 65.55 123.66 82.57 123.66 106.64 106.64 123.66 82.57 123.66 65.55 106.64ZM94.6 135.69 85.42 126.51 103.77 126.51 94.59 135.69ZM123.66 123.66 110.68 123.66 123.66 110.68 123.66 123.66ZM135.69 94.6 126.51 103.78 126.51 85.43 135.69 94.61ZM123.66 65.55 123.66 78.53 110.68 65.55 123.66 65.55ZM94.6 53.51 103.78 62.69 85.43 62.69 94.61 53.51ZM65.55 65.55 78.53 65.55 65.55 78.53 65.55 65.55ZM53.51 94.6 62.69 85.42 62.69 103.77 53.51 94.59Z" stroke-width="0" fill="#ED7D31"/></svg>