<svg viewBox="0 0 174.84 151.42" xmlns="http://www.w3.org/2000/svg" xmlns:xlink="http://www.w3.org/1999/xlink" id="Layer_1" overflow="hidden"><defs></defs><path d="M131.13 151.42 174.43 76.43 174.84 75.72 131.13 0 43.71 0 0.41 74.99 0 75.7 43.71 151.41 131.13 151.41ZM12.49 91.63 69.42 148.56 45.36 148.56 12.49 91.63ZM126.83 14.03 130.54 4.7 136.84 15.62 126.83 14.03ZM137.42 18.6 151.36 106.61 74.42 145.81 125.75 16.75 137.42 18.6ZM123.94 13.57 56.3 2.86 128.2 2.86 123.94 13.57ZM122.86 16.29 71.17 146.26 8.96 84.05 49.41 4.66 122.86 16.29ZM129.48 148.56 75.32 148.56 152.05 109.46 129.48 148.56ZM154.13 105.86 140.97 22.77 171.54 75.72 154.13 105.87ZM45.36 2.86 47.12 2.86 6.86 81.88 3.3 75.71 45.36 2.86Z" stroke-width="0" fill="#ED7D31"/></svg>