<svg xmlns="http://www.w3.org/2000/svg" width="16.034" height="16.114" viewBox="0 0 16.034 16.114">
  <path id="progress-download_1_" data-name="progress-download(1)" d="M16.153,8.057A8.063,8.063,0,0,1,5.794,15.78l.383-1.287a6.714,6.714,0,1,0,0-12.872L5.794.334A8.063,8.063,0,0,1,16.153,8.057ZM8.1,12.085a1.479,1.479,0,0,0,1.048-.432l2.5-2.445-.939-.961-1.942,1.9V4.028H7.425v6.117l-1.941-1.9-.939.961,2.5,2.44a1.49,1.49,0,0,0,1.057.437ZM3,12.428,1.98,13.3a8.111,8.111,0,0,0,1.727,1.512l.733-1.126A6.748,6.748,0,0,1,3,12.428ZM.119,9.2a8.01,8.01,0,0,0,.639,2.193l1.222-.555a6.66,6.66,0,0,1-.532-1.826L.119,9.2Zm0-2.279,1.329.188A6.667,6.667,0,0,1,1.98,5.28L.758,4.725A8.01,8.01,0,0,0,.119,6.917ZM1.988,2.8l1.018.876A6.742,6.742,0,0,1,4.44,2.425L3.708,1.3a8.109,8.109,0,0,0-1.72,1.5Z" transform="translate(-0.119)" fill="#ed7d31"/>
</svg>
