<svg viewBox="0 0 210.52 60.68" xmlns="http://www.w3.org/2000/svg" xmlns:xlink="http://www.w3.org/1999/xlink" id="Isolation_Mode" overflow="hidden"><style>
.MsftOfcResponsive_Fill_ed7d31 {
 fill:#ED7D31; 
}
</style>
<defs></defs><path d="M17.61 11.78C54.5 45.8 157.46 45.52 194.36 11.78 195.51 10.73 196.96 10.08 198.28 10.93 199.59 11.77 199.98 13.53 199.13 14.85 189.73 29.49 175.88 40.77 160.34 48.39 143.52 56.64 124.68 60.69 105.98 60.69 87.28 60.69 68.44 56.64 51.62 48.39 36.08 40.77 22.24 29.49 12.84 14.85 12 13.54 12.38 11.78 13.69 10.93 15 10.09 16.76 10.47 17.61 11.78L17.61 11.78ZM0.15 15.56C0.39 17.1 1.84 18.17 3.38 17.93 4.92 17.69 5.99 16.24 5.75 14.7 5.37 12.24 6.2 9.72 7.96 7.97 9.72 6.21 12.24 5.39 14.69 5.76 16.23 6 17.68 4.93 17.92 3.39 18.16 1.85 17.09 0.4 15.55 0.16 11.32-0.49 6.98 0.93 3.96 3.96 0.93 6.98-0.49 11.32 0.15 15.56L0.15 15.56ZM204.76 14.7C204.52 16.24 205.59 17.69 207.13 17.93 208.67 18.17 210.12 17.1 210.36 15.56 211.01 11.33 209.59 6.99 206.56 3.96 203.53 0.93 199.19-0.49 194.96 0.16 193.42 0.4 192.35 1.85 192.59 3.39 192.83 4.93 194.28 6 195.82 5.76 198.28 5.38 200.79 6.21 202.55 7.97 204.31 9.73 205.13 12.25 204.76 14.7Z" class="MsftOfcResponsive_Fill_ed7d31" stroke-width="0" fill="#ED7D31" fill-rule="evenodd"/></svg>