<?xml version="1.0" encoding="UTF-8"?>
<svg id="Layer_2" data-name="Layer 2" xmlns="http://www.w3.org/2000/svg" viewBox="0 0 859.55 859.55">
  <defs>
    <style>
      .cls-1 {
        fill: #ed7d31;
      }

      .cls-1, .cls-2 {
        stroke-width: 0px;
      }

      .cls-2 {
        fill: #fff;
      }
    </style>
  </defs>
  <g id="Layer_1-2" data-name="Layer 1">
    <path class="cls-1" d="M432.21,859.55h-4.87c-114.15,0-221.46-44.45-302.18-125.17C44.45,653.67,0,546.35,0,432.21V0h859.55v432.21c0,114.15-44.45,221.46-125.17,302.17-80.71,80.71-188.03,125.17-302.17,125.17Z"/>
    <g>
      <g>
        <g>
          <path class="cls-2" d="M583.35,97.79v87.76h-1.52c.51.31,1.02.64,1.52.97v218.43h-43.87V141.68h-43.87v562.78c15.12-3.56,29.79-8.34,43.87-14.23v-241.4h43.87v269.21c-14.05,7.42-28.7,13.86-43.87,19.22-14.21,5.03-28.86,9.1-43.87,12.15-14.32,2.91-28.97,4.88-43.89,5.85V97.79h131.64Z"/>
          <path class="cls-2" d="M627.23,97.79v592.39c9.15-6.86,17.92-14.19,26.28-21.95,6.09-5.64,11.96-11.52,17.6-17.6,7.76-8.36,15.09-17.13,21.95-26.28,7.95-10.57,15.27-21.65,21.92-33.16,2.04-3.53,4.02-7.1,5.92-10.72,7.43-14.05,13.87-28.71,19.23-43.88,5.02-14.2,9.1-28.85,12.15-43.88,2.91-14.32,4.88-28.97,5.85-43.89.49-7.25.73-14.57.73-21.94V97.79h-131.64ZM714.98,426.89c0,7.39-.28,14.7-.83,21.94-1.14,14.99-3.44,29.65-6.82,43.89-3.56,15.13-8.34,29.79-14.23,43.88-6.15,14.79-13.54,28.96-22,42.36V141.68h43.87v285.21Z"/>
          <path class="cls-2" d="M276.2,97.79v620.24c14.06,7.42,28.71,13.87,43.88,19.22,14.2,5.03,28.85,9.1,43.89,12.15,14.31,2.91,28.96,4.88,43.88,5.85V97.79h-131.64ZM363.96,704.47c-15.14-3.56-29.79-8.35-43.89-14.23v-241.41h43.89v255.64ZM363.96,404.95h-43.89V141.68h43.89v263.27Z"/>
        </g>
        <path class="cls-2" d="M100.67,97.79v329.09c0,7.35.24,14.65.73,21.88v.07c.98,14.92,2.95,29.57,5.85,43.89,3.05,15.02,7.13,29.67,12.15,43.88,5.35,15.17,11.8,29.83,19.23,43.88,1.91,3.62,3.88,7.19,5.92,10.72v-142.43h43.88v201.87c5.64,6.08,11.52,11.96,17.6,17.6,8.36,7.76,17.13,15.09,26.28,21.94V97.79H100.67ZM144.56,404.95V141.68h43.88v263.27h-43.88Z"/>
      </g>
      <path class="cls-2" d="M432.21,859.55h-4.87c-114.15,0-221.46-44.45-302.18-125.17C44.45,653.67,0,546.35,0,432.21V0h859.55v432.21c0,114.15-44.45,221.46-125.17,302.17-80.71,80.71-188.03,125.17-302.17,125.17ZM43.79,43.79v388.42c0,211.49,172.06,383.55,383.55,383.55h4.87c211.49,0,383.55-172.06,383.55-383.55V43.79H43.79Z"/>
    </g>
  </g>
</svg>