<svg viewBox="0 0 505.44 171.44" xmlns="http://www.w3.org/2000/svg" xmlns:xlink="http://www.w3.org/1999/xlink" id="Layer_1" overflow="hidden"><style>
.MsftOfcResponsive_Fill_ed7d31 {
 fill:#ED7D31; 
}
</style>
<defs></defs><g><path d="M116.94 129.98C124.74 129.98 129.84 133.7 133.08 138.32L127.32 141.56C125.22 138.56 121.44 136.22 116.94 136.22 109.02 136.22 103.14 142.28 103.14 150.68 103.14 159.08 109.02 165.2 116.94 165.2 121.02 165.2 124.62 163.28 126.42 161.6L126.42 155.36 114.48 155.36 114.48 149.18 133.44 149.18 133.44 164.18C129.48 168.56 123.9 171.44 116.94 171.44 105.36 171.44 95.94 163.22 95.94 150.68 95.94 138.14 105.36 129.98 116.94 129.98Z" class="MsftOfcResponsive_Fill_ed7d31" stroke-width="0" fill="#ED7D31"/><path d="M167.22 170.66 158.34 155.72 151.38 155.72 151.38 170.66 144.36 170.66 144.36 130.64 161.94 130.64C169.86 130.64 175.02 135.8 175.02 143.18 175.02 150.56 170.34 154.16 165.54 154.94L175.32 170.66 167.22 170.66ZM160.98 136.82 151.38 136.82 151.38 149.54 160.98 149.54C164.94 149.54 167.82 147.02 167.82 143.18 167.82 139.34 164.94 136.82 160.98 136.82Z" class="MsftOfcResponsive_Fill_ed7d31" stroke-width="0" fill="#ED7D31"/><path d="M213.96 170.66 211.02 162.98 192.06 162.98 189.12 170.66 181.44 170.66 197.16 130.64 205.92 130.64 221.64 170.66 213.96 170.66ZM201.54 136.58 194.04 156.8 209.04 156.8 201.54 136.58Z" class="MsftOfcResponsive_Fill_ed7d31" stroke-width="0" fill="#ED7D31"/><path d="M229.62 170.66 229.62 130.64 247.2 130.64C255.6 130.64 260.28 136.4 260.28 143.18 260.28 149.96 255.54 155.72 247.2 155.72L236.64 155.72 236.64 170.66 229.62 170.66ZM246.24 136.82 236.64 136.82 236.64 149.54 246.24 149.54C250.2 149.54 253.08 147.02 253.08 143.18 253.08 139.34 250.2 136.82 246.24 136.82Z" class="MsftOfcResponsive_Fill_ed7d31" stroke-width="0" fill="#ED7D31"/><path d="M297.54 170.66 297.54 153.2 276.72 153.2 276.72 170.66 269.7 170.66 269.7 130.64 276.72 130.64 276.72 147.02 297.54 147.02 297.54 130.64 304.56 130.64 304.56 170.66 297.54 170.66Z" class="MsftOfcResponsive_Fill_ed7d31" stroke-width="0" fill="#ED7D31"/><path d="M316.68 170.66 316.68 130.64 323.7 130.64 323.7 170.66 316.68 170.66Z" class="MsftOfcResponsive_Fill_ed7d31" stroke-width="0" fill="#ED7D31"/><path d="M334.02 150.68C334.02 138.38 343.2 129.98 354.72 129.98 363.12 129.98 368.1 134.18 371.1 138.98L365.1 142.04C363.18 138.74 359.34 136.22 354.72 136.22 347.1 136.22 341.22 142.28 341.22 150.68 341.22 159.08 347.1 165.14 354.72 165.14 359.34 165.14 363.18 162.68 365.1 159.32L371.1 162.38C368.04 167.18 363.12 171.38 354.72 171.38 343.2 171.38 334.02 162.98 334.02 150.68Z" class="MsftOfcResponsive_Fill_ed7d31" stroke-width="0" fill="#ED7D31"/><path d="M381.66 159.62C384.42 162.56 388.74 165.14 394.32 165.14 399.9 165.14 402.36 162.32 402.36 159.68 402.36 156.08 398.1 155 393.24 153.74 386.7 152.12 379.02 150.2 379.02 141.74 379.02 135.14 384.84 130.04 393.6 130.04 399.84 130.04 404.88 132.02 408.6 135.62L404.58 140.84C401.46 137.72 397.2 136.28 393 136.28 388.8 136.28 386.22 138.26 386.22 141.26 386.22 144.26 390.3 145.4 395.04 146.6 401.64 148.28 409.5 150.32 409.5 159.02 409.5 165.68 404.82 171.38 394.02 171.38 386.64 171.38 381.3 168.8 377.76 165.02L381.66 159.62Z" class="MsftOfcResponsive_Fill_ed7d31" stroke-width="0" fill="#ED7D31"/></g><g><path d="M79.05 103.5 75.15 90.6 36.75 90.6 32.85 103.5 0 103.5 36.9 3.45 75 3.45 111.9 103.5 79.05 103.5ZM55.95 30.15 44.55 65.4 67.35 65.4 55.95 30.15Z" class="MsftOfcResponsive_Fill_ed7d31" stroke-width="0" fill="#ED7D31"/><path d="M126.3 103.5 126.3 3.45 187.05 3.45C207.75 3.45 216.75 17.25 216.75 28.95 216.75 41.4 209.4 49.8 199.65 51.9 210.45 53.55 218.7 63.45 218.7 76.35 218.7 90.3 209.25 103.5 189.15 103.5L126.3 103.5ZM156.6 40.65 180 40.65C183.15 40.65 186 37.8 186 34.2 186 30.6 183.15 28.05 180 28.05L156.6 28.05 156.6 40.65ZM156.6 78.9 180.9 78.9C185.25 78.9 187.95 75.9 187.95 72.15 187.95 68.4 185.25 65.25 180.9 65.25L156.6 65.25 156.6 78.9Z" class="MsftOfcResponsive_Fill_ed7d31" stroke-width="0" fill="#ED7D31"/><path d="M234.45 51.75C234.45 20.85 258.15 0 288.75 0 315.75 0 328.95 15.3 334.95 29.1L308.85 41.25C306.3 33.45 298.5 26.7 288.75 26.7 274.95 26.7 265.2 37.8 265.2 51.75 265.2 65.7 274.95 76.8 288.75 76.8 298.5 76.8 306.3 70.05 308.85 62.25L334.95 74.25C329.1 87.6 315.75 103.5 288.75 103.5 258.15 103.5 234.45 82.5 234.45 51.75Z" class="MsftOfcResponsive_Fill_ed7d31" stroke-width="0" fill="#ED7D31"/><path d="M353.4 103.5 353.4 3.45 398.1 3.45C429.6 3.45 453 21.45 453 53.4 453 85.35 429.6 103.5 398.25 103.5L353.4 103.5ZM383.69 77.1 398.09 77.1C413.24 77.1 422.24 66 422.24 53.4 422.24 39.9 414.44 29.85 398.24 29.85L383.69 29.85 383.69 77.1Z" class="MsftOfcResponsive_Fill_ed7d31" stroke-width="0" fill="#ED7D31"/><circle cx="484.44" cy="82.5" r="21" class="MsftOfcResponsive_Fill_ed7d31" stroke-width="0" fill="#ED7D31"/></g></svg>