<svg viewBox="0 0 100 100" xmlns="http://www.w3.org/2000/svg" xmlns:xlink="http://www.w3.org/1999/xlink" overflow="hidden"><g id="Layer_1"></g><g id="Layer_2"><g><path d="M40.761 46.915C46.024 44.385 48.734 40.659 48.726 34.733 48.996 27.452 44.618 22.296 37.673 21.009 32.667 19.614 8.093 20.502 2.5 20.267L2.5 78.702C2.5 78.702 21.566 78.702 21.566 78.702 25.634 78.584 32.128 78.979 36.079 78.222 39.414 77.677 42.489 76.453 45.108 74.688 54.937 68.047 53.273 49.725 40.761 46.915ZM15.367 30.221 27.404 30.221C29.506 30.235 31.794 30.464 33.545 31.535 37.143 33.361 37.04 40.192 34.048 42.237 32.553 43.334 30.665 43.875 28.386 43.875 25.22 43.88 18.566 43.872 15.367 43.875ZM37.827 64.813C36.17 68.007 32.472 68.738 29.096 68.75L15.367 68.75 15.367 52.659 29.354 52.659C32.123 52.659 34.375 53.296 36.063 54.576 38.601 56.177 39.347 61.931 37.827 64.813Z" fill="#FFFFFF"/><path d="M96.618 50.925C90.241 25.947 54.615 32.473 55.226 57.576 55.13 66.452 59.449 74.97 67.874 78.195 74.186 80.764 83.686 80.277 89.151 76.504 92.555 74.315 95.051 70.68 96.696 65.586L86.461 65.586C84.397 71.71 73.911 72.797 69.772 68.555 68.025 66.855 66.894 63.688 66.894 60.344L97.426 60.344C97.645 57.062 97.379 53.926 96.618 50.925ZM66.894 53.02C67.058 47.974 71.102 43.682 76.55 43.97 79.404 43.97 81.744 44.796 83.124 46.325 84.511 47.866 85.525 50.056 85.802 53.02Z" fill="#FFFFFF"/><path d="M64.517 24.187 88.204 24.187 88.204 29.953 64.517 29.953Z" fill="#FFFFFF"/></g></g></svg>