<svg width="512" height="512" viewBox="0 0 100 100" xmlns="http://www.w3.org/2000/svg" xmlns:xlink="http://www.w3.org/1999/xlink" id="Layer_1" overflow="hidden"><g id="_x30_1._Facebook"><path d="M40.4 55.2C40.1 55.2 33.5 55.2 30.5 55.2 28.9 55.2 28.4 54.6 28.4 53.1 28.4 49.1 28.4 45 28.4 41 28.4 39.4 29 38.9 30.5 38.9L40.4 38.9C40.4 38.6 40.4 32.8 40.4 30.1 40.4 26.1 41.1 22.3 43.1 18.8 45.2 15.2 48.2 12.8 52 11.4 54.5 10.5 57 10.1 59.7 10.1L69.5 10.1C70.9 10.1 71.5 10.7 71.5 12.1L71.5 23.5C71.5 24.9 70.9 25.5 69.5 25.5 66.8 25.5 64.1 25.5 61.4 25.6 58.7 25.6 57.3 26.9 57.3 29.7 57.2 32.7 57.3 35.6 57.3 38.7L68.9 38.7C70.5 38.7 71.1 39.3 71.1 40.9L71.1 53C71.1 54.6 70.6 55.1 68.9 55.1 65.3 55.1 57.6 55.1 57.3 55.1L57.3 87.7C57.3 89.4 56.8 90 55 90 50.8 90 46.7 90 42.5 90 41 90 40.4 89.4 40.4 87.9 40.4 77.4 40.4 55.5 40.4 55.2Z" id="Icon_11_" fill="#FFFFFF"/></g></svg>