<svg width="512" height="512" viewBox="0 0 60 60" xmlns="http://www.w3.org/2000/svg" xmlns:xlink="http://www.w3.org/1999/xlink" id="Layer_1" overflow="hidden"><g><path d="M30 20.83C24.94 20.83 20.83 24.94 20.83 30 20.83 35.06 24.94 39.18 30 39.18 35.06 39.18 39.18 35.06 39.18 30 39.18 24.94 35.06 20.83 30 20.83Z" fill="#FFFFFF"/><path d="M43.84 5 16.16 5C10.01 5 5 10.01 5 16.16L5 43.84C5 50 10.01 55 16.16 55L43.84 55C50 55 55 50 55 43.84L55 16.16C55 10.01 50 5 43.84 5ZM30 46.2C21.07 46.2 13.8 38.93 13.8 30 13.8 21.07 21.07 13.81 30 13.81 38.93 13.81 46.2 21.07 46.2 30 46.2 38.93 38.93 46.2 30 46.2ZM46.54 16.75C44.65 16.75 43.11 15.22 43.11 13.33 43.11 11.44 44.65 9.9 46.54 9.9 48.43 9.9 49.97 11.44 49.97 13.33 49.97 15.22 48.43 16.75 46.54 16.75Z" fill="#FFFFFF"/></g></svg>